<mxfile
  host="Electron" 
  agent="Mozilla/5.0 (Macintosh; Intel Mac OS X 10_15_7) AppleWebKit/537.36 (KHTML, like Gecko) draw.io/25.0.2 Chrome/128.0.6613.186 Electron/32.2.5 Safari/537.36" 
  version="25.0.2"
  >
  <diagram
    name="-"
    >
    <mxGraphModel
      grid="1" 
      gridSize="10" 
      guides="1" 
      tooltips="1" 
      connect="1" 
      arrows="1" 
      fold="1" 
      page="1" 
      pageScale="1" 
      pageWidth="1" 
      pageHeight="1" 
      math="0" 
      shadow="0"
      >
      <root>
        <mxCell
          id="page"
          />
        <mxCell
          id="root" 
          parent="page"
          />
        <mxCell
          style="verticalAlign=top;aspect=fixed;align=center;spacingLeft=5;spacingRight=5;spacingBottom=5;strokeColor=none;" 
          id="shape_" 
          parent="root" 
          value=" " 
          vertex="1"
          >
          <mxGeometry
            as="geometry" 
            width="48" 
            height="48" 
            x="0" 
            y="0"
            />
          </mxCell>
        <mxCell
          style="shape=image;editableCssRules=.*;verticalLabelPosition=bottom;labelBackgroundColor=default;verticalAlign=top;aspect=fixed;imageAspect=0;image=data:image/svg+xml,PHN2ZyB4bWxucz0iaHR0cDovL3d3dy53My5vcmcvMjAwMC9zdmciIHZpZXdCb3g9Ii0wLjUgLTAuNSAyOC4xNTUgMjgiIGhlaWdodD0iMjgiIHdpZHRoPSIyOC4xNTUiPiYjeGE7CSAgPHN0eWxlIHR5cGU9InRleHQvY3NzIj4mI3hhOwkJLnN0MHtzdG9wLWNvbG9yOiMwMGNlYWM7fSYjeGE7CQkuc3Qxe3N0b3AtY29sb3I6IzA3ODM4Zjt9JiN4YTsJICA8L3N0eWxlPiYjeGE7CTxkZWZzPiYjeGE7CQk8bGluZWFyR3JhZGllbnQgZ3JhZGllbnRVbml0cz0idXNlclNwYWNlT25Vc2UiIHkyPSIyNS40MjgiIHgyPSIyMy40NjYiIHkxPSIzLjQ3NCIgeDE9IjIuMDUzIiBpZD0iQSI+JiN4YTsJCQk8c3RvcCBjbGFzcz0ic3QwIi8+JiN4YTsJCQk8c3RvcCBjbGFzcz0ic3QxIiBvZmZzZXQ9IjEiLz4mI3hhOwkJPC9saW5lYXJHcmFkaWVudD4mI3hhOwk8L2RlZnM+JiN4YTsJPHBhdGggZmlsbD0idXJsKCNBKSIgZD0iTTguOTEgOC40MzljLS42NzguMTgxLTEuMTMuNTUzLTEuNDMzIDEuMTY3bC0uMjA5LjQxNnY2Ljk2MmwuMTc2LjM2N2EyLjE3IDIuMTcgMCAwIDAgMS40ODggMS4yMjJjLjQ3NC4xMiA4LjgxNy4xMiA5LjI5MSAwYTIuMTcgMi4xNyAwIDAgMCAxLjQ4OC0xLjIyMmwuMTc2LS4zNjd2LTYuOTYybC0uMjA5LS40MTZhMi4wOCAyLjA4IDAgMCAwLTEuNDU1LTEuMTY3Yy0uNDU3LS4xMi04Ljg3Mi0uMTE1LTkuMzEzIDB6bTcuMjg1IDIuMTI1Yy0uMDYxLjA0NC0uNjk0LjQyNy0xLjQxMS44NTRsLTEuMjk1Ljc3OC0xLjM1LS44MzMtMS4zNjctLjg0OWMtLjAxMS0uMDExIDEuMjIzLS4wMjIgMi43NTUtLjAyMmwyLjY2Ny4wNzF6bTEuNTk4IDUuODgzYy0uMDM5LjEwNC04LjM5Mi4xMDQtOC40MzEgMC0uMDE3LS4wMzMtLjAyMi0xLjAyNC0uMDE3LTIuMTkxbC4wMTctMi4xMjUgMS41OTguOTkxYzEuODI5IDEuMTM0IDIuMDc3IDEuMjM4IDIuNzYxIDEuMTg5LjU0LS4wMzguNjk0LS4xMTUgMi41MjktMS4yNmwxLjU0My0uOTU5LjAxNyAyLjE0Mi0uMDE3IDIuMjEzek0xMi41MDMtLjQ4NEM4LjkxNi0uMTE3IDYuMDA2IDEuMjIgMy42MDkgMy41OTcgMS4zODMgNS44MS4wMzMgOC41NDktLjQzIDExLjc4MWMtLjA5NC42NDYtLjA5NCAyLjgwNSAwIDMuNDUxLjQ2MyAzLjIzMiAxLjgxMyA1Ljk3MSA0LjAzOSA4LjE4NHM0Ljk4MSAzLjU1NSA4LjIzMiA0LjAxNWMuNjUuMDkzIDIuODIxLjA5MyAzLjQ3MiAwIDMuMjUxLS40NiA2LjAwNi0xLjgwMiA4LjIzMy00LjAxNXMzLjU3Ni00Ljk1MiA0LjAzOS04LjE4NGMuMDk0LS42NDYuMDk0LTIuODA0IDAtMy40NTEtLjQ2My0zLjIzMi0xLjgxMy01Ljk3MS00LjAzOS04LjE4NC0yLjE3MS0yLjE1OC00Ljg3MS0zLjUtNy45ODUtMy45NzdhMjQuMjYgMjQuMjYgMCAwIDAtMy4wNTgtLjEwNHptMi44NzEgMi45MmM0LjgxMS43ODkgOC41MTkgNC40ODYgOS4zNDYgOS4zMTdhMTIuNDUgMTIuNDUgMCAwIDEgMCAzLjUwNmMtLjgyNiA0Ljg0Mi00LjUwNyA4LjUwMS05LjM3OSA5LjMyM2ExMi42OCAxMi42OCAwIDAgMS0zLjUyNyAwYy00Ljg3MS0uODIyLTguNTUyLTQuNDgxLTkuMzc5LTkuMzIzLS4xNjUtLjk2OS0uMTY1LTIuNTM2IDAtMy41MDYuNDA4LTIuMzk0IDEuNDg4LTQuNDgxIDMuMTgtNi4xNjIgMS44NjgtMS44NjIgNC4yMzItMi45NjkgNi45NDMtMy4yNTkuNjU2LS4wNzEgMi4wNTUtLjAxNiAyLjgxNi4xMDR6Ii8+JiN4YTs8L3N2Zz4;strokeColor=none;" 
          id="event_highlight_" 
          parent="shape_" 
          value=" " 
          vertex="1"
          >
          <mxGeometry
            width="28" 
            height="28" 
            as="geometry" 
            x="10" 
            y="10"
            />
          </mxCell>
        </root>
      </mxGraphModel>
    </diagram>
  </mxfile>